<svg width="40" height="40" viewBox="0 0 40 40" fill="none" xmlns="http://www.w3.org/2000/svg">
<path d="M25 0H5C2.25 0 0 1.8 0 4V36C0 38.2 2.25 40 5 40H35C37.75 40 40 38.2 40 36V12L25 0ZM27.5 18H17.5V20H25C26.375 20 27.5 20.9 27.5 22V28C27.5 29.1 26.375 30 25 30H22.5V32H17.5V30H12.5V26H22.5V24H15C13.625 24 12.5 23.1 12.5 22V16C12.5 14.9 13.625 14 15 14H17.5V12H22.5V14H27.5V18Z" fill="url(#paint0_linear_1659_279)"/>
<defs>
<linearGradient id="paint0_linear_1659_279" x1="20" y1="0" x2="20" y2="40" gradientUnits="userSpaceOnUse">
<stop offset="0.250598" stop-color="white"/>
<stop offset="0.990224" stop-color="#8B35A0"/>
</linearGradient>
</defs>
</svg>
