<svg width="114" height="27" viewBox="0 0 114 27" fill="none" xmlns="http://www.w3.org/2000/svg">
<path d="M114 25C114 26.1046 113.105 27 112 27H3.62524C2.05084 27 1.09376 25.2652 1.93341 23.9334L16.4342 0.933359C16.8004 0.352394 17.4392 0 18.126 0H112C113.105 0 114 0.89543 114 2V25Z" fill="#EB1A1A"/>
<path d="M49.2795 17.156C48.5168 17.156 47.8668 17.0173 47.3295 16.74C46.8008 16.4627 46.3458 16.09 45.9645 15.622L46.9785 14.673C47.2991 15.063 47.6501 15.3577 48.0315 15.557C48.4215 15.7563 48.8635 15.856 49.3575 15.856C49.9381 15.856 50.3758 15.726 50.6705 15.466C50.9651 15.206 51.1125 14.855 51.1125 14.413C51.1125 14.0577 51.0085 13.776 50.8005 13.568C50.5925 13.36 50.2241 13.204 49.6955 13.1L48.8895 12.957C48.0055 12.7923 47.3425 12.502 46.9005 12.086C46.4585 11.67 46.2375 11.098 46.2375 10.37C46.2375 9.97133 46.3111 9.61167 46.4585 9.291C46.6145 8.96167 46.8268 8.68867 47.0955 8.472C47.3728 8.24667 47.7065 8.07333 48.0965 7.952C48.4865 7.83067 48.9241 7.77 49.4095 7.77C50.0941 7.77 50.6878 7.89133 51.1905 8.134C51.6931 8.368 52.1221 8.71033 52.4775 9.161L51.4505 10.071C51.2165 9.76767 50.9305 9.525 50.5925 9.343C50.2545 9.161 49.8341 9.07 49.3315 9.07C48.8115 9.07 48.4085 9.174 48.1225 9.382C47.8365 9.59 47.6935 9.89333 47.6935 10.292C47.6935 10.6733 47.8105 10.9593 48.0445 11.15C48.2785 11.332 48.6425 11.4707 49.1365 11.566L49.9425 11.735C50.8525 11.9083 51.5155 12.203 51.9315 12.619C52.3561 13.035 52.5685 13.607 52.5685 14.335C52.5685 14.7597 52.4948 15.1453 52.3475 15.492C52.2001 15.8387 51.9835 16.1377 51.6975 16.389C51.4201 16.6317 51.0778 16.8223 50.6705 16.961C50.2631 17.091 49.7995 17.156 49.2795 17.156ZM57.14 17.156C56.6547 17.156 56.2213 17.0737 55.84 16.909C55.4587 16.7443 55.1337 16.5103 54.865 16.207C54.5963 15.895 54.3883 15.5223 54.241 15.089C54.1023 14.647 54.033 14.1573 54.033 13.62C54.033 13.0827 54.1023 12.5973 54.241 12.164C54.3883 11.722 54.5963 11.3493 54.865 11.046C55.1337 10.734 55.4587 10.4957 55.84 10.331C56.2213 10.1663 56.6547 10.084 57.14 10.084C57.634 10.084 58.0673 10.1707 58.44 10.344C58.8213 10.5173 59.1377 10.76 59.389 11.072C59.6403 11.3753 59.8267 11.7307 59.948 12.138C60.078 12.5453 60.143 12.983 60.143 13.451V13.984H55.502V14.205C55.502 14.725 55.6537 15.154 55.957 15.492C56.269 15.8213 56.711 15.986 57.283 15.986C57.699 15.986 58.05 15.895 58.336 15.713C58.622 15.531 58.8647 15.284 59.064 14.972L59.896 15.791C59.6447 16.207 59.2807 16.5407 58.804 16.792C58.3273 17.0347 57.7727 17.156 57.14 17.156ZM57.14 11.189C56.8973 11.189 56.672 11.2323 56.464 11.319C56.2647 11.4057 56.0913 11.527 55.944 11.683C55.8053 11.839 55.697 12.0253 55.619 12.242C55.541 12.4587 55.502 12.697 55.502 12.957V13.048H58.648V12.918C58.648 12.398 58.5137 11.982 58.245 11.67C57.9763 11.3493 57.608 11.189 57.14 11.189ZM63.4146 17C62.9293 17 62.5653 16.8787 62.3226 16.636C62.0886 16.3847 61.9716 16.038 61.9716 15.596V7.38H63.3886V15.843H64.3246V17H63.4146ZM67.3055 17C66.8202 17 66.4562 16.8787 66.2135 16.636C65.9795 16.3847 65.8625 16.038 65.8625 15.596V7.38H67.2795V15.843H68.2155V17H67.3055Z" fill="#EB1A1A"/>
<path d="M49.2795 17.156C48.5168 17.156 47.8668 17.0173 47.3295 16.74C46.8008 16.4627 46.3458 16.09 45.9645 15.622L46.9785 14.673C47.2991 15.063 47.6501 15.3577 48.0315 15.557C48.4215 15.7563 48.8635 15.856 49.3575 15.856C49.9381 15.856 50.3758 15.726 50.6705 15.466C50.9651 15.206 51.1125 14.855 51.1125 14.413C51.1125 14.0577 51.0085 13.776 50.8005 13.568C50.5925 13.36 50.2241 13.204 49.6955 13.1L48.8895 12.957C48.0055 12.7923 47.3425 12.502 46.9005 12.086C46.4585 11.67 46.2375 11.098 46.2375 10.37C46.2375 9.97133 46.3111 9.61167 46.4585 9.291C46.6145 8.96167 46.8268 8.68867 47.0955 8.472C47.3728 8.24667 47.7065 8.07333 48.0965 7.952C48.4865 7.83067 48.9241 7.77 49.4095 7.77C50.0941 7.77 50.6878 7.89133 51.1905 8.134C51.6931 8.368 52.1221 8.71033 52.4775 9.161L51.4505 10.071C51.2165 9.76767 50.9305 9.525 50.5925 9.343C50.2545 9.161 49.8341 9.07 49.3315 9.07C48.8115 9.07 48.4085 9.174 48.1225 9.382C47.8365 9.59 47.6935 9.89333 47.6935 10.292C47.6935 10.6733 47.8105 10.9593 48.0445 11.15C48.2785 11.332 48.6425 11.4707 49.1365 11.566L49.9425 11.735C50.8525 11.9083 51.5155 12.203 51.9315 12.619C52.3561 13.035 52.5685 13.607 52.5685 14.335C52.5685 14.7597 52.4948 15.1453 52.3475 15.492C52.2001 15.8387 51.9835 16.1377 51.6975 16.389C51.4201 16.6317 51.0778 16.8223 50.6705 16.961C50.2631 17.091 49.7995 17.156 49.2795 17.156ZM57.14 17.156C56.6547 17.156 56.2213 17.0737 55.84 16.909C55.4587 16.7443 55.1337 16.5103 54.865 16.207C54.5963 15.895 54.3883 15.5223 54.241 15.089C54.1023 14.647 54.033 14.1573 54.033 13.62C54.033 13.0827 54.1023 12.5973 54.241 12.164C54.3883 11.722 54.5963 11.3493 54.865 11.046C55.1337 10.734 55.4587 10.4957 55.84 10.331C56.2213 10.1663 56.6547 10.084 57.14 10.084C57.634 10.084 58.0673 10.1707 58.44 10.344C58.8213 10.5173 59.1377 10.76 59.389 11.072C59.6403 11.3753 59.8267 11.7307 59.948 12.138C60.078 12.5453 60.143 12.983 60.143 13.451V13.984H55.502V14.205C55.502 14.725 55.6537 15.154 55.957 15.492C56.269 15.8213 56.711 15.986 57.283 15.986C57.699 15.986 58.05 15.895 58.336 15.713C58.622 15.531 58.8647 15.284 59.064 14.972L59.896 15.791C59.6447 16.207 59.2807 16.5407 58.804 16.792C58.3273 17.0347 57.7727 17.156 57.14 17.156ZM57.14 11.189C56.8973 11.189 56.672 11.2323 56.464 11.319C56.2647 11.4057 56.0913 11.527 55.944 11.683C55.8053 11.839 55.697 12.0253 55.619 12.242C55.541 12.4587 55.502 12.697 55.502 12.957V13.048H58.648V12.918C58.648 12.398 58.5137 11.982 58.245 11.67C57.9763 11.3493 57.608 11.189 57.14 11.189ZM63.4146 17C62.9293 17 62.5653 16.8787 62.3226 16.636C62.0886 16.3847 61.9716 16.038 61.9716 15.596V7.38H63.3886V15.843H64.3246V17H63.4146ZM67.3055 17C66.8202 17 66.4562 16.8787 66.2135 16.636C65.9795 16.3847 65.8625 16.038 65.8625 15.596V7.38H67.2795V15.843H68.2155V17H67.3055Z" fill="white"/>
</svg>
