<svg width="120" height="27" viewBox="0 0 120 27" fill="none" xmlns="http://www.w3.org/2000/svg">
<path d="M0 2C0 0.895431 0.89543 0 2 0H117.255C118.854 0 119.807 1.78342 118.917 3.11229L103.526 26.1123C103.155 26.667 102.531 27 101.864 27H2C0.89543 27 0 26.1046 0 25V2Z" fill="#00EC34"/>
<path d="M42.288 7.624H45.996C46.692 7.624 47.236 7.82 47.628 8.212C48.028 8.604 48.228 9.128 48.228 9.784C48.228 10.096 48.184 10.364 48.096 10.588C48.008 10.804 47.896 10.984 47.76 11.128C47.624 11.264 47.468 11.368 47.292 11.44C47.116 11.504 46.944 11.544 46.776 11.56V11.632C46.944 11.64 47.128 11.68 47.328 11.752C47.536 11.824 47.728 11.94 47.904 12.1C48.08 12.252 48.228 12.452 48.348 12.7C48.468 12.94 48.528 13.236 48.528 13.588C48.528 13.924 48.472 14.24 48.36 14.536C48.256 14.832 48.108 15.088 47.916 15.304C47.724 15.52 47.496 15.692 47.232 15.82C46.968 15.94 46.68 16 46.368 16H42.288V7.624ZM43.644 14.836H45.972C46.324 14.836 46.6 14.744 46.8 14.56C47 14.376 47.1 14.112 47.1 13.768V13.36C47.1 13.016 47 12.752 46.8 12.568C46.6 12.384 46.324 12.292 45.972 12.292H43.644V14.836ZM43.644 11.164H45.744C46.08 11.164 46.34 11.08 46.524 10.912C46.708 10.736 46.8 10.488 46.8 10.168V9.784C46.8 9.464 46.708 9.22 46.524 9.052C46.34 8.876 46.08 8.788 45.744 8.788H43.644V11.164ZM54.1222 14.968H54.0742C54.0182 15.12 53.9422 15.268 53.8462 15.412C53.7582 15.556 53.6422 15.684 53.4982 15.796C53.3622 15.9 53.1942 15.984 52.9942 16.048C52.8022 16.112 52.5782 16.144 52.3222 16.144C51.6742 16.144 51.1702 15.936 50.8102 15.52C50.4582 15.104 50.2822 14.508 50.2822 13.732V9.76H51.5902V13.564C51.5902 14.532 51.9902 15.016 52.7902 15.016C52.9582 15.016 53.1222 14.996 53.2822 14.956C53.4422 14.908 53.5822 14.84 53.7022 14.752C53.8302 14.664 53.9302 14.552 54.0022 14.416C54.0822 14.28 54.1222 14.12 54.1222 13.936V9.76H55.4302V16H54.1222V14.968ZM61.3711 9.76H62.6311L60.0031 17.236C59.9311 17.444 59.8471 17.62 59.7511 17.764C59.6631 17.916 59.5551 18.036 59.4271 18.124C59.3071 18.22 59.1591 18.288 58.9831 18.328C58.8071 18.376 58.5991 18.4 58.3591 18.4H57.6031V17.332H58.6591L59.0191 16.276L56.7511 9.76H58.0591L59.3071 13.432L59.6671 14.788H59.7271L60.1231 13.432L61.3711 9.76Z" fill="#444750"/>
<path d="M42.288 7.624H45.996C46.692 7.624 47.236 7.82 47.628 8.212C48.028 8.604 48.228 9.128 48.228 9.784C48.228 10.096 48.184 10.364 48.096 10.588C48.008 10.804 47.896 10.984 47.76 11.128C47.624 11.264 47.468 11.368 47.292 11.44C47.116 11.504 46.944 11.544 46.776 11.56V11.632C46.944 11.64 47.128 11.68 47.328 11.752C47.536 11.824 47.728 11.94 47.904 12.1C48.08 12.252 48.228 12.452 48.348 12.7C48.468 12.94 48.528 13.236 48.528 13.588C48.528 13.924 48.472 14.24 48.36 14.536C48.256 14.832 48.108 15.088 47.916 15.304C47.724 15.52 47.496 15.692 47.232 15.82C46.968 15.94 46.68 16 46.368 16H42.288V7.624ZM43.644 14.836H45.972C46.324 14.836 46.6 14.744 46.8 14.56C47 14.376 47.1 14.112 47.1 13.768V13.36C47.1 13.016 47 12.752 46.8 12.568C46.6 12.384 46.324 12.292 45.972 12.292H43.644V14.836ZM43.644 11.164H45.744C46.08 11.164 46.34 11.08 46.524 10.912C46.708 10.736 46.8 10.488 46.8 10.168V9.784C46.8 9.464 46.708 9.22 46.524 9.052C46.34 8.876 46.08 8.788 45.744 8.788H43.644V11.164ZM54.1222 14.968H54.0742C54.0182 15.12 53.9422 15.268 53.8462 15.412C53.7582 15.556 53.6422 15.684 53.4982 15.796C53.3622 15.9 53.1942 15.984 52.9942 16.048C52.8022 16.112 52.5782 16.144 52.3222 16.144C51.6742 16.144 51.1702 15.936 50.8102 15.52C50.4582 15.104 50.2822 14.508 50.2822 13.732V9.76H51.5902V13.564C51.5902 14.532 51.9902 15.016 52.7902 15.016C52.9582 15.016 53.1222 14.996 53.2822 14.956C53.4422 14.908 53.5822 14.84 53.7022 14.752C53.8302 14.664 53.9302 14.552 54.0022 14.416C54.0822 14.28 54.1222 14.12 54.1222 13.936V9.76H55.4302V16H54.1222V14.968ZM61.3711 9.76H62.6311L60.0031 17.236C59.9311 17.444 59.8471 17.62 59.7511 17.764C59.6631 17.916 59.5551 18.036 59.4271 18.124C59.3071 18.22 59.1591 18.288 58.9831 18.328C58.8071 18.376 58.5991 18.4 58.3591 18.4H57.6031V17.332H58.6591L59.0191 16.276L56.7511 9.76H58.0591L59.3071 13.432L59.6671 14.788H59.7271L60.1231 13.432L61.3711 9.76Z" fill="#F9F6FA"/>
</svg>
