<svg width="121" height="27" viewBox="0 0 121 27" fill="none" xmlns="http://www.w3.org/2000/svg">
<path d="M0 2C0 0.895431 0.895431 0 2 0H117.255C118.854 0 119.807 1.78342 118.917 3.11229L103.526 26.1123C103.155 26.667 102.531 27 101.864 27H2C0.895431 27 0 26.1046 0 25V2Z" fill="#9B8E9D" fill-opacity="0.21"/>
<path d="M41.4775 7.926H45.4945C46.2485 7.926 46.8379 8.13833 47.2625 8.563C47.6959 8.98767 47.9125 9.55533 47.9125 10.266C47.9125 10.604 47.8649 10.8943 47.7695 11.137C47.6742 11.371 47.5529 11.566 47.4055 11.722C47.2582 11.8693 47.0892 11.982 46.8985 12.06C46.7079 12.1293 46.5215 12.1727 46.3395 12.19V12.268C46.5215 12.2767 46.7209 12.32 46.9375 12.398C47.1629 12.476 47.3709 12.6017 47.5615 12.775C47.7522 12.9397 47.9125 13.1563 48.0425 13.425C48.1725 13.685 48.2375 14.0057 48.2375 14.387C48.2375 14.751 48.1769 15.0933 48.0555 15.414C47.9429 15.7347 47.7825 16.012 47.5745 16.246C47.3665 16.48 47.1195 16.6663 46.8335 16.805C46.5475 16.935 46.2355 17 45.8975 17H41.4775V7.926ZM42.9465 15.739H45.4685C45.8499 15.739 46.1489 15.6393 46.3655 15.44C46.5822 15.2407 46.6905 14.9547 46.6905 14.582V14.14C46.6905 13.7673 46.5822 13.4813 46.3655 13.282C46.1489 13.0827 45.8499 12.983 45.4685 12.983H42.9465V15.739ZM42.9465 11.761H45.2215C45.5855 11.761 45.8672 11.67 46.0665 11.488C46.2659 11.2973 46.3655 11.0287 46.3655 10.682V10.266C46.3655 9.91933 46.2659 9.655 46.0665 9.473C45.8672 9.28233 45.5855 9.187 45.2215 9.187H42.9465V11.761ZM54.2979 15.882H54.2459C54.1852 16.0467 54.1029 16.207 53.9989 16.363C53.9035 16.519 53.7779 16.6577 53.6219 16.779C53.4745 16.8917 53.2925 16.9827 53.0759 17.052C52.8679 17.1213 52.6252 17.156 52.3479 17.156C51.6459 17.156 51.0999 16.9307 50.7099 16.48C50.3285 16.0293 50.1379 15.3837 50.1379 14.543V10.24H51.5549V14.361C51.5549 15.4097 51.9882 15.934 52.8549 15.934C53.0369 15.934 53.2145 15.9123 53.3879 15.869C53.5612 15.817 53.7129 15.7433 53.8429 15.648C53.9815 15.5527 54.0899 15.4313 54.1679 15.284C54.2545 15.1367 54.2979 14.9633 54.2979 14.764V10.24H55.7149V17H54.2979V15.882ZM62.1509 10.24H63.5159L60.6689 18.339C60.5909 18.5643 60.4999 18.755 60.3959 18.911C60.3005 19.0757 60.1835 19.2057 60.0449 19.301C59.9149 19.405 59.7545 19.4787 59.5639 19.522C59.3732 19.574 59.1479 19.6 58.8879 19.6H58.0689V18.443H59.2129L59.6029 17.299L57.1459 10.24H58.5629L59.9149 14.218L60.3049 15.687H60.3699L60.7989 14.218L62.1509 10.24Z" fill="#444750"/>
<path d="M41.4775 7.926H45.4945C46.2485 7.926 46.8379 8.13833 47.2625 8.563C47.6959 8.98767 47.9125 9.55533 47.9125 10.266C47.9125 10.604 47.8649 10.8943 47.7695 11.137C47.6742 11.371 47.5529 11.566 47.4055 11.722C47.2582 11.8693 47.0892 11.982 46.8985 12.06C46.7079 12.1293 46.5215 12.1727 46.3395 12.19V12.268C46.5215 12.2767 46.7209 12.32 46.9375 12.398C47.1629 12.476 47.3709 12.6017 47.5615 12.775C47.7522 12.9397 47.9125 13.1563 48.0425 13.425C48.1725 13.685 48.2375 14.0057 48.2375 14.387C48.2375 14.751 48.1769 15.0933 48.0555 15.414C47.9429 15.7347 47.7825 16.012 47.5745 16.246C47.3665 16.48 47.1195 16.6663 46.8335 16.805C46.5475 16.935 46.2355 17 45.8975 17H41.4775V7.926ZM42.9465 15.739H45.4685C45.8499 15.739 46.1489 15.6393 46.3655 15.44C46.5822 15.2407 46.6905 14.9547 46.6905 14.582V14.14C46.6905 13.7673 46.5822 13.4813 46.3655 13.282C46.1489 13.0827 45.8499 12.983 45.4685 12.983H42.9465V15.739ZM42.9465 11.761H45.2215C45.5855 11.761 45.8672 11.67 46.0665 11.488C46.2659 11.2973 46.3655 11.0287 46.3655 10.682V10.266C46.3655 9.91933 46.2659 9.655 46.0665 9.473C45.8672 9.28233 45.5855 9.187 45.2215 9.187H42.9465V11.761ZM54.2979 15.882H54.2459C54.1852 16.0467 54.1029 16.207 53.9989 16.363C53.9035 16.519 53.7779 16.6577 53.6219 16.779C53.4745 16.8917 53.2925 16.9827 53.0759 17.052C52.8679 17.1213 52.6252 17.156 52.3479 17.156C51.6459 17.156 51.0999 16.9307 50.7099 16.48C50.3285 16.0293 50.1379 15.3837 50.1379 14.543V10.24H51.5549V14.361C51.5549 15.4097 51.9882 15.934 52.8549 15.934C53.0369 15.934 53.2145 15.9123 53.3879 15.869C53.5612 15.817 53.7129 15.7433 53.8429 15.648C53.9815 15.5527 54.0899 15.4313 54.1679 15.284C54.2545 15.1367 54.2979 14.9633 54.2979 14.764V10.24H55.7149V17H54.2979V15.882ZM62.1509 10.24H63.5159L60.6689 18.339C60.5909 18.5643 60.4999 18.755 60.3959 18.911C60.3005 19.0757 60.1835 19.2057 60.0449 19.301C59.9149 19.405 59.7545 19.4787 59.5639 19.522C59.3732 19.574 59.1479 19.6 58.8879 19.6H58.0689V18.443H59.2129L59.6029 17.299L57.1459 10.24H58.5629L59.9149 14.218L60.3049 15.687H60.3699L60.7989 14.218L62.1509 10.24Z" fill="#F9F6FA" fill-opacity="0.21"/>
</svg>
