<svg width="114" height="27" viewBox="0 0 114 27" fill="none" xmlns="http://www.w3.org/2000/svg">
<path d="M114 25C114 26.1046 113.105 27 112 27H3.62524C2.05084 27 1.09376 25.2652 1.93341 23.9334L16.4342 0.933359C16.8004 0.352394 17.4392 0 18.126 0H112C113.105 0 114 0.89543 114 2V25Z" fill="#B6B6B6" fill-opacity="0.21"/>
<path d="M49.8734 16.144C49.1694 16.144 48.5694 16.016 48.0734 15.76C47.5854 15.504 47.1654 15.16 46.8134 14.728L47.7494 13.852C48.0454 14.212 48.3694 14.484 48.7214 14.668C49.0814 14.852 49.4894 14.944 49.9454 14.944C50.4814 14.944 50.8854 14.824 51.1574 14.584C51.4294 14.344 51.5654 14.02 51.5654 13.612C51.5654 13.284 51.4694 13.024 51.2774 12.832C51.0854 12.64 50.7454 12.496 50.2574 12.4L49.5134 12.268C48.6974 12.116 48.0854 11.848 47.6774 11.464C47.2694 11.08 47.0654 10.552 47.0654 9.88C47.0654 9.512 47.1334 9.18 47.2694 8.884C47.4134 8.58 47.6094 8.328 47.8574 8.128C48.1134 7.92 48.4214 7.76 48.7814 7.648C49.1414 7.536 49.5454 7.48 49.9934 7.48C50.6254 7.48 51.1734 7.592 51.6374 7.816C52.1014 8.032 52.4974 8.348 52.8254 8.764L51.8774 9.604C51.6614 9.324 51.3974 9.1 51.0854 8.932C50.7734 8.764 50.3854 8.68 49.9214 8.68C49.4414 8.68 49.0694 8.776 48.8054 8.968C48.5414 9.16 48.4094 9.44 48.4094 9.808C48.4094 10.16 48.5174 10.424 48.7334 10.6C48.9494 10.768 49.2854 10.896 49.7414 10.984L50.4854 11.14C51.3254 11.3 51.9374 11.572 52.3214 11.956C52.7134 12.34 52.9094 12.868 52.9094 13.54C52.9094 13.932 52.8414 14.288 52.7054 14.608C52.5694 14.928 52.3694 15.204 52.1054 15.436C51.8494 15.66 51.5334 15.836 51.1574 15.964C50.7814 16.084 50.3534 16.144 49.8734 16.144ZM57.1292 16.144C56.6812 16.144 56.2812 16.068 55.9292 15.916C55.5772 15.764 55.2772 15.548 55.0292 15.268C54.7812 14.98 54.5892 14.636 54.4532 14.236C54.3252 13.828 54.2612 13.376 54.2612 12.88C54.2612 12.384 54.3252 11.936 54.4532 11.536C54.5892 11.128 54.7812 10.784 55.0292 10.504C55.2772 10.216 55.5772 9.996 55.9292 9.844C56.2812 9.692 56.6812 9.616 57.1292 9.616C57.5852 9.616 57.9852 9.696 58.3292 9.856C58.6812 10.016 58.9732 10.24 59.2052 10.528C59.4372 10.808 59.6092 11.136 59.7212 11.512C59.8412 11.888 59.9012 12.292 59.9012 12.724V13.216H55.6172V13.42C55.6172 13.9 55.7572 14.296 56.0372 14.608C56.3252 14.912 56.7332 15.064 57.2612 15.064C57.6452 15.064 57.9692 14.98 58.2332 14.812C58.4972 14.644 58.7212 14.416 58.9052 14.128L59.6732 14.884C59.4412 15.268 59.1052 15.576 58.6652 15.808C58.2252 16.032 57.7132 16.144 57.1292 16.144ZM57.1292 10.636C56.9052 10.636 56.6972 10.676 56.5052 10.756C56.3212 10.836 56.1612 10.948 56.0252 11.092C55.8972 11.236 55.7972 11.408 55.7252 11.608C55.6532 11.808 55.6172 12.028 55.6172 12.268V12.352H58.5212V12.232C58.5212 11.752 58.3972 11.368 58.1492 11.08C57.9012 10.784 57.5612 10.636 57.1292 10.636ZM62.9212 16C62.4732 16 62.1372 15.888 61.9132 15.664C61.6972 15.432 61.5892 15.112 61.5892 14.704V7.12H62.8972V14.932H63.7612V16H62.9212ZM66.5128 16C66.0648 16 65.7288 15.888 65.5048 15.664C65.2888 15.432 65.1808 15.112 65.1808 14.704V7.12H66.4888V14.932H67.3528V16H66.5128Z" fill="#999999" fill-opacity="0.21"/>
<path d="M49.8734 16.144C49.1694 16.144 48.5694 16.016 48.0734 15.76C47.5854 15.504 47.1654 15.16 46.8134 14.728L47.7494 13.852C48.0454 14.212 48.3694 14.484 48.7214 14.668C49.0814 14.852 49.4894 14.944 49.9454 14.944C50.4814 14.944 50.8854 14.824 51.1574 14.584C51.4294 14.344 51.5654 14.02 51.5654 13.612C51.5654 13.284 51.4694 13.024 51.2774 12.832C51.0854 12.64 50.7454 12.496 50.2574 12.4L49.5134 12.268C48.6974 12.116 48.0854 11.848 47.6774 11.464C47.2694 11.08 47.0654 10.552 47.0654 9.88C47.0654 9.512 47.1334 9.18 47.2694 8.884C47.4134 8.58 47.6094 8.328 47.8574 8.128C48.1134 7.92 48.4214 7.76 48.7814 7.648C49.1414 7.536 49.5454 7.48 49.9934 7.48C50.6254 7.48 51.1734 7.592 51.6374 7.816C52.1014 8.032 52.4974 8.348 52.8254 8.764L51.8774 9.604C51.6614 9.324 51.3974 9.1 51.0854 8.932C50.7734 8.764 50.3854 8.68 49.9214 8.68C49.4414 8.68 49.0694 8.776 48.8054 8.968C48.5414 9.16 48.4094 9.44 48.4094 9.808C48.4094 10.16 48.5174 10.424 48.7334 10.6C48.9494 10.768 49.2854 10.896 49.7414 10.984L50.4854 11.14C51.3254 11.3 51.9374 11.572 52.3214 11.956C52.7134 12.34 52.9094 12.868 52.9094 13.54C52.9094 13.932 52.8414 14.288 52.7054 14.608C52.5694 14.928 52.3694 15.204 52.1054 15.436C51.8494 15.66 51.5334 15.836 51.1574 15.964C50.7814 16.084 50.3534 16.144 49.8734 16.144ZM57.1292 16.144C56.6812 16.144 56.2812 16.068 55.9292 15.916C55.5772 15.764 55.2772 15.548 55.0292 15.268C54.7812 14.98 54.5892 14.636 54.4532 14.236C54.3252 13.828 54.2612 13.376 54.2612 12.88C54.2612 12.384 54.3252 11.936 54.4532 11.536C54.5892 11.128 54.7812 10.784 55.0292 10.504C55.2772 10.216 55.5772 9.996 55.9292 9.844C56.2812 9.692 56.6812 9.616 57.1292 9.616C57.5852 9.616 57.9852 9.696 58.3292 9.856C58.6812 10.016 58.9732 10.24 59.2052 10.528C59.4372 10.808 59.6092 11.136 59.7212 11.512C59.8412 11.888 59.9012 12.292 59.9012 12.724V13.216H55.6172V13.42C55.6172 13.9 55.7572 14.296 56.0372 14.608C56.3252 14.912 56.7332 15.064 57.2612 15.064C57.6452 15.064 57.9692 14.98 58.2332 14.812C58.4972 14.644 58.7212 14.416 58.9052 14.128L59.6732 14.884C59.4412 15.268 59.1052 15.576 58.6652 15.808C58.2252 16.032 57.7132 16.144 57.1292 16.144ZM57.1292 10.636C56.9052 10.636 56.6972 10.676 56.5052 10.756C56.3212 10.836 56.1612 10.948 56.0252 11.092C55.8972 11.236 55.7972 11.408 55.7252 11.608C55.6532 11.808 55.6172 12.028 55.6172 12.268V12.352H58.5212V12.232C58.5212 11.752 58.3972 11.368 58.1492 11.08C57.9012 10.784 57.5612 10.636 57.1292 10.636ZM62.9212 16C62.4732 16 62.1372 15.888 61.9132 15.664C61.6972 15.432 61.5892 15.112 61.5892 14.704V7.12H62.8972V14.932H63.7612V16H62.9212ZM66.5128 16C66.0648 16 65.7288 15.888 65.5048 15.664C65.2888 15.432 65.1808 15.112 65.1808 14.704V7.12H66.4888V14.932H67.3528V16H66.5128Z" fill="white"/>
</svg>
